HIERARCHY
ROOT Hips
{
	OFFSET 0.000000 88.474243 0.000000
	CHANNELS 6 Xposition Yposition Zposition Zrotation Yrotation Xrotation 
	JOINT Hips_Spine
	{
		OFFSET 0.000000 0.000000 0.000000
		CHANNELS 3 Zrotation Yrotation Xrotation
		JOINT Spine
		{
			OFFSET 0.005100 8.711998 -0.691000
			CHANNELS 3 Zrotation Yrotation Xrotation
			JOINT Spine1
			{
				OFFSET -0.009200 8.660301 -1.275000
				CHANNELS 3 Zrotation Yrotation Xrotation
				JOINT Spine2
				{
					OFFSET 0.006300 9.852501 -1.857000
					CHANNELS 3 Zrotation Yrotation Xrotation
					JOINT Spine2_Neck
					{
						OFFSET 0.000000 0.000000 0.000000
						CHANNELS 3 Zrotation Yrotation Xrotation
						JOINT Neck
						{
							OFFSET 0.016300 11.420799 -0.263300
							CHANNELS 3 Zrotation Yrotation Xrotation
							End Site #name: Head
							{
								OFFSET -0.019200 9.262405 2.362500
							}
						}
					}
					JOINT Spine2_LeftShoulder
					{
						OFFSET 0.000000 0.000000 0.000000
						CHANNELS 3 Zrotation Yrotation Xrotation
						JOINT LeftShoulder
						{
							OFFSET 5.616900 6.732201 -0.345700
							CHANNELS 3 Zrotation Yrotation Xrotation
							JOINT LeftArm
							{
								OFFSET 10.664888 -0.183372 -2.440700
								CHANNELS 3 Zrotation Yrotation Xrotation
								JOINT LeftForeArm
								{
									OFFSET 27.459126 0.000000 0.000000
									CHANNELS 3 Zrotation Yrotation Xrotation
									End Site #name: LeftHand
									{
										OFFSET 21.306858 0.000000 0.000000
									}
								}
							}
						}
					}
					JOINT Spine2_RightShoulder
					{
						OFFSET 0.000000 0.000000 0.000000
						CHANNELS 3 Zrotation Yrotation Xrotation
						JOINT RightShoulder
						{
							OFFSET -5.580300 6.737503 -0.344400
							CHANNELS 3 Zrotation Yrotation Xrotation
							JOINT RightArm
							{
								OFFSET -10.679335 -0.188484 -2.383900
								CHANNELS 3 Zrotation Yrotation Xrotation
								JOINT RightForeArm
								{
									OFFSET -27.503529 0.000000 0.000000
									CHANNELS 3 Zrotation Yrotation Xrotation
									End Site #name: RightHand
									{
										OFFSET -21.306808 0.000000 0.000000
									}
								}
							}
						}
					}
				}
			}
		}
	}
	JOINT Hips_LeftUpLeg
	{
		OFFSET 0.000000 0.000000 0.000000
		CHANNELS 3 Zrotation Yrotation Xrotation
		JOINT LeftUpLeg
		{
			OFFSET 6.857700 -6.739601 0.312100
			CHANNELS 3 Zrotation Yrotation Xrotation
			JOINT LeftLeg
			{
				OFFSET -0.367590 -34.731552 -4.572400
				CHANNELS 3 Zrotation Yrotation Xrotation
				End Site #name: LeftFoot
				{
					OFFSET 0.367590 -34.656704 -6.067400
				}
			}
		}
	}
	JOINT Hips_RightUpLeg
	{
		OFFSET 0.000000 0.000000 0.000000
		CHANNELS 3 Zrotation Yrotation Xrotation
		JOINT RightUpLeg
		{
			OFFSET -6.876100 -6.733299 0.301000
			CHANNELS 3 Zrotation Yrotation Xrotation
			JOINT RightLeg
			{
				OFFSET 0.347353 -34.795158 -4.515900
				CHANNELS 3 Zrotation Yrotation Xrotation
				End Site #name: RightFoot
				{
					OFFSET -0.347353 -34.589367 -6.070300
				}
			}
		}
	}
}
MOTION
Frames: 15
Frame Time: 0.041667
0.031377 -0.021692 -0.073918 -177.692573 59.297838 -173.675614 -0.000000 -0.000000 0.000000 -3.991569 3.525678 -1.051659 0.933308 -0.353320 0.388640 0.000000 0.000000 0.000000 0.316031 -0.945342 -2.941049 -1.725638 -8.371418 -0.778297 0.529874 -0.104623 -1.227217 -3.319147 -7.407708 1.537198 -78.195331 -8.738600 9.864448 0.799317 -16.838126 3.581593 0.234170 -0.525688 -1.750844 18.539161 13.001738 4.507683 51.141545 12.513527 -10.688512 -7.743552 72.252410 -1.366109 0.000000 -0.000000 0.000000 -8.338985 18.522727 -15.628715 -7.159397 -37.005633 0.812610 -0.000000 -0.000000 -0.000000 -9.014177 -31.083297 -7.088416 -15.312238 -10.760173 14.566901 
-0.233430 -0.198800 -0.122999 179.304895 63.921911 -175.111933 -0.000000 -0.000000 0.000000 -5.837325 2.292990 1.260366 1.170389 -0.637996 -0.707747 0.000000 0.000000 0.000000 1.103087 -0.664242 -2.964173 -0.469593 -16.306592 -0.054136 0.647586 -0.328920 -1.951640 -2.208138 -8.953728 1.771849 -84.150003 -15.659585 6.000784 -1.107144 -13.500677 1.612284 0.953491 -0.872407 -0.680237 24.177330 16.055775 4.839383 50.172559 11.200304 -11.436112 -4.405528 56.558453 1.165952 -0.000000 -0.000000 -0.000000 -6.577393 19.629042 -13.481734 -3.658467 -34.577631 -5.063729 -0.000000 -0.000000 -0.000000 -9.379273 -36.832819 -5.845502 -13.424000 -7.172107 13.829705 
-0.256835 -0.271410 -0.143936 177.702467 52.840229 -176.585843 -0.000000 -0.000000 0.000000 -6.613924 -0.560975 1.858590 1.432806 -0.649921 -1.339187 0.000000 0.000000 0.000000 1.539593 -0.838970 -3.176143 -1.180717 -25.754097 0.028639 0.703885 -0.305121 -2.467265 -0.953419 -8.080223 1.131902 -85.740101 -16.877855 0.815457 -0.843720 -7.801597 1.837017 1.324280 -1.015157 -2.125013 25.775208 18.185420 5.809119 51.258658 10.624174 -6.321561 -3.279318 52.736893 3.808861 -0.000000 0.000000 -0.000000 -5.227566 20.669063 -12.079846 -2.700021 -33.390422 -7.187746 -0.000000 -0.000000 -0.000000 -9.807598 -42.051206 -3.717008 -13.431508 -7.259265 14.726040 
-0.124150 -0.315580 -0.162017 177.944816 40.099858 -177.154906 -0.000000 -0.000000 0.000000 -6.433121 -1.490240 2.523269 1.113285 -0.970654 -1.728343 0.000000 0.000000 0.000000 1.467166 -1.108308 -3.057515 -1.837857 -30.619428 0.095388 0.570222 -0.491824 -2.827597 -0.539887 -7.265815 0.789309 -86.728929 -18.083827 -1.120544 -0.575994 -5.019113 1.946538 1.090107 -1.434843 -2.246416 24.485507 17.771925 5.836954 51.679240 11.339431 -3.796022 -1.464756 52.375543 5.285891 -0.000000 0.000000 -0.000000 -4.572055 21.527711 -10.940317 -2.125910 -34.257434 -7.956421 -0.000000 -0.000000 -0.000000 -10.714811 -49.152614 -2.408165 -13.910919 -6.566748 15.874285 
0.030405 -0.334895 -0.222248 177.596133 28.361488 -177.759178 -0.000000 -0.000000 0.000000 -5.848380 -1.678388 2.762641 0.650520 -1.234013 -1.897480 0.000000 0.000000 0.000000 1.237672 -1.350710 -2.618810 -1.824385 -32.352632 -0.059809 0.276892 -0.735006 -2.848499 -0.591236 -6.465963 0.615356 -87.362749 -18.991301 -0.833084 0.203469 -3.825760 2.693273 0.705866 -1.682744 -1.941672 22.090492 16.540659 5.445966 52.246749 12.113408 -1.093086 -0.742771 52.824181 5.124603 -0.000000 0.000000 -0.000000 -4.266256 22.187394 -10.291551 -1.821858 -34.776601 -8.361077 -0.000000 -0.000000 -0.000000 -11.222864 -54.540233 -1.825401 -14.598565 -5.667906 16.990186 
0.193319 -0.330420 -0.319160 176.835034 18.593566 -178.224597 -0.000000 -0.000000 0.000000 -5.179568 -1.497724 2.910122 0.237347 -1.434301 -1.675334 0.000000 0.000000 0.000000 0.975956 -1.476199 -1.884272 -1.326933 -31.791540 -0.867226 0.002044 -0.902196 -2.453372 -0.780054 -5.677726 0.529349 -87.762829 -19.115071 -0.107881 1.144471 -3.437922 3.550800 0.342421 -1.800755 -1.246393 20.017293 15.364165 5.136673 52.944210 11.795532 1.445794 -1.410691 52.706989 3.868455 -0.000000 0.000000 -0.000000 -4.334716 22.362179 -10.147898 -1.703908 -35.165514 -8.678061 -0.000000 -0.000000 -0.000000 -11.194612 -58.209379 -1.945973 -15.198875 -5.197509 17.803128 
0.360480 -0.306716 -0.438031 175.985555 11.631826 -178.465684 -0.000000 -0.000000 0.000000 -4.792202 -0.535206 3.006649 -0.039388 -1.481507 -1.068412 0.000000 0.000000 0.000000 0.772416 -1.497186 -1.024398 -0.701596 -30.328370 -1.909332 -0.146033 -0.985730 -1.933030 -0.988196 -4.931958 0.475538 -87.660864 -19.105655 0.794947 1.943459 -4.017894 4.268435 0.106583 -1.859320 -0.757448 18.463856 14.320281 5.273923 53.860177 9.881534 4.648937 -1.582110 51.407361 3.409898 -0.000000 0.000000 -0.000000 -4.564120 22.051598 -10.278677 -1.644496 -35.518909 -9.060555 -0.000000 -0.000000 -0.000000 -10.927892 -60.121327 -2.388747 -15.747920 -5.352213 18.185005 
0.527062 -0.273333 -0.567265 175.291401 6.383852 -178.551990 -0.000000 -0.000000 0.000000 -4.681840 0.712533 3.037791 -0.157925 -1.434537 -0.311173 0.000000 0.000000 0.000000 0.597266 -1.468731 -0.158947 -0.196718 -28.821536 -2.771479 -0.238040 -0.997330 -1.421087 -1.121810 -4.343855 0.448796 -87.159133 -19.284771 1.731848 2.477602 -5.317073 4.585049 -0.025411 -1.872688 -0.498739 17.421346 13.829978 4.850484 54.679378 7.963753 7.350674 -1.503818 48.883536 3.507952 -0.000000 0.000000 -0.000000 -4.741923 21.574520 -10.356291 -1.599974 -35.757655 -9.453688 -0.000000 -0.000000 -0.000000 -10.724379 -60.714910 -2.814965 -16.296518 -5.964592 18.188009 
0.691165 -0.233291 -0.696652 174.783141 1.609802 -178.588512 -0.000000 -0.000000 0.000000 -4.800970 1.702973 3.154095 -0.204827 -1.353146 0.409886 0.000000 0.000000 0.000000 0.469436 -1.415486 0.526351 -0.032240 -27.727083 -3.200007 -0.299246 -0.977611 -1.021718 -1.138864 -3.941470 0.470196 -86.418785 -19.645067 2.598841 2.840734 -7.069301 4.426286 -0.122758 -1.878000 -0.253520 16.668573 13.638198 4.400987 55.037464 7.058342 7.888835 -1.240693 45.480074 3.905888 -0.000000 0.000000 -0.000000 -4.766729 21.077293 -10.024156 -1.562104 -36.008201 -9.901278 -0.000000 -0.000000 -0.000000 -10.667178 -60.792979 -3.098073 -16.463339 -6.635744 17.825983 
0.848668 -0.184466 -0.829630 174.490968 -2.823466 -178.619978 -0.000000 -0.000000 0.000000 -5.141200 2.271528 3.381885 -0.212713 -1.296085 0.935710 0.000000 0.000000 0.000000 0.387509 -1.381469 0.990004 0.219720 -27.316574 -3.329461 -0.338808 -0.976670 -0.756721 -1.032624 -3.744246 0.523516 -85.758639 -20.234708 3.309186 3.144518 -9.099327 3.873538 -0.207953 -1.889793 -0.090658 16.056401 13.378699 4.029198 55.301198 6.662272 7.626336 -0.268925 42.180125 4.722967 0.000000 0.000000 -0.000000 -4.670043 20.664337 -9.401119 -1.525906 -36.314358 -10.274116 -0.000000 -0.000000 -0.000000 -10.757047 -60.419092 -3.162192 -16.326485 -7.418861 17.222059 
0.997055 -0.127611 -0.971539 174.350761 -6.780723 -178.647550 -0.000000 -0.000000 0.000000 -5.571170 2.388784 3.733113 -0.219863 -1.305166 1.213443 0.000000 0.000000 0.000000 0.331361 -1.373634 1.239893 0.620488 -27.519586 -3.425545 -0.367808 -0.996672 -0.604061 -0.794480 -3.816375 0.580799 -85.318519 -20.925089 3.913392 3.364952 -11.139462 3.041875 -0.285675 -1.934514 0.000545 15.622923 13.025336 3.792687 55.515106 6.371245 7.638055 1.286809 40.233982 5.806465 0.000000 0.000000 -0.000000 -4.510440 20.334753 -8.636260 -1.493822 -36.726489 -10.620539 -0.000000 -0.000000 -0.000000 -11.025848 -59.855470 -2.928934 -15.774081 -8.119713 16.305615 
1.137196 -0.066490 -1.124313 174.253752 -10.131806 -178.612098 -0.000000 -0.000000 0.000000 -6.041493 2.198042 3.996748 -0.240440 -1.390782 1.318362 0.000000 0.000000 0.000000 0.290471 -1.397213 1.358987 1.088064 -28.009965 -3.501013 -0.388966 -1.044973 -0.529391 -0.501599 -4.052104 0.650986 -85.084477 -21.441284 4.503812 3.556506 -13.161371 2.131489 -0.344808 -2.004295 0.039333 15.361758 12.738340 3.628792 55.656494 6.335027 7.408572 2.785091 39.253944 6.846716 0.000000 0.000000 -0.000000 -4.356392 20.004162 -7.828954 -1.452385 -37.233194 -10.986254 -0.000000 -0.000000 -0.000000 -11.347987 -59.283847 -2.621289 -15.089615 -8.881331 15.447656 
1.272713 -0.005347 -1.284465 174.250331 -12.670038 -178.575938 -0.000000 -0.000000 0.000000 -6.480881 1.818117 4.202911 -0.262633 -1.504269 1.353633 0.000000 0.000000 0.000000 0.277521 -1.445255 1.415781 1.425228 -28.562350 -3.519647 -0.398946 -1.116069 -0.498912 -0.156070 -4.396560 0.717542 -84.950117 -21.751220 5.217741 3.692072 -15.039761 1.594203 -0.378660 -2.086465 0.041561 15.231007 12.589202 3.510511 55.770976 6.536697 7.142828 4.113397 39.066138 7.761418 0.000000 0.000000 -0.000000 -4.201693 19.729485 -7.015360 -1.372577 -37.789896 -11.455391 -0.000000 -0.000000 -0.000000 -11.575622 -58.600917 -2.486554 -14.619451 -9.947022 14.905151 
1.403605 0.055371 -1.450232 174.250511 -14.649470 -178.538210 -0.000000 -0.000000 0.000000 -6.860237 1.360012 4.373500 -0.277472 -1.628582 1.377135 0.000000 0.000000 0.000000 0.285687 -1.504166 1.459908 1.619435 -29.017981 -3.462923 -0.397834 -1.195431 -0.485933 0.172194 -4.724574 0.765947 -84.783014 -21.913951 6.102045 3.863646 -16.921735 1.179978 -0.387895 -2.183273 0.036654 15.178817 12.518334 3.444938 55.849197 6.792042 6.886574 5.192250 39.180208 8.508119 0.000000 0.000000 -0.000000 -4.043206 19.485444 -6.163089 -1.236251 -38.426999 -12.086085 -0.000000 -0.000000 -0.000000 -11.577067 -57.749774 -2.691202 -14.334428 -11.140273 14.666377 
1.528747 0.114094 -1.622444 174.235920 -16.196050 -178.492288 -0.000000 -0.000000 0.000000 -7.147553 0.936613 4.516360 -0.264181 -1.744962 1.393650 0.000000 0.000000 0.000000 0.311837 -1.566077 1.509638 1.749699 -29.383021 -3.361843 -0.387461 -1.276193 -0.478098 0.447091 -4.943751 0.791649 -84.619202 -21.883069 7.014742 3.975405 -18.399533 0.771217 -0.374484 -2.283272 0.034972 15.178015 12.489635 3.397526 55.917409 7.105932 6.736917 6.018675 39.459432 9.100038 0.000000 0.000000 -0.000000 -3.890569 19.255217 -5.314550 -1.040407 -39.129020 -12.866579 -0.000000 0.000000 -0.000000 -11.394428 -56.938882 -3.112248 -14.162583 -12.188737 14.645941 
